<svg id="visual" viewBox="0 0 1200 500" width="1200" height="500" xmlns="http://www.w3.org/2000/svg" xmlns:xlink="http://www.w3.org/1999/xlink" version="1.1"><rect x="0" y="0" width="1200" height="500" fill="#1a1a1a"></rect><path d="M0 280L25 276.2C50 272.3 100 264.7 150 269C200 273.3 250 289.7 300 293C350 296.3 400 286.7 450 281.8C500 277 550 277 600 285.5C650 294 700 311 750 307.2C800 303.3 850 278.7 900 263.7C950 248.7 1000 243.3 1050 240.7C1100 238 1150 238 1175 238L1200 238L1200 501L1175 501C1150 501 1100 501 1050 501C1000 501 950 501 900 501C850 501 800 501 750 501C700 501 650 501 600 501C550 501 500 501 450 501C400 501 350 501 300 501C250 501 200 501 150 501C100 501 50 501 25 501L0 501Z" fill="#ff189b"></path><path d="M0 310L25 314.5C50 319 100 328 150 328.7C200 329.3 250 321.7 300 312.8C350 304 400 294 450 292.5C500 291 550 298 600 308.3C650 318.7 700 332.3 750 338.8C800 345.3 850 344.7 900 338C950 331.3 1000 318.7 1050 322.8C1100 327 1150 348 1175 358.5L1200 369L1200 501L1175 501C1150 501 1100 501 1050 501C1000 501 950 501 900 501C850 501 800 501 750 501C700 501 650 501 600 501C550 501 500 501 450 501C400 501 350 501 300 501C250 501 200 501 150 501C100 501 50 501 25 501L0 501Z" fill="#d4299d"></path><path d="M0 338L25 340C50 342 100 346 150 343.8C200 341.7 250 333.3 300 328.3C350 323.3 400 321.7 450 332.3C500 343 550 366 600 376.7C650 387.3 700 385.7 750 379.8C800 374 850 364 900 366.8C950 369.7 1000 385.3 1050 389.8C1100 394.3 1150 387.7 1175 384.3L1200 381L1200 501L1175 501C1150 501 1100 501 1050 501C1000 501 950 501 900 501C850 501 800 501 750 501C700 501 650 501 600 501C550 501 500 501 450 501C400 501 350 501 300 501C250 501 200 501 150 501C100 501 50 501 25 501L0 501Z" fill="#a93299"></path><path d="M0 386L25 389.3C50 392.7 100 399.3 150 399C200 398.7 250 391.3 300 387.2C350 383 400 382 450 387C500 392 550 403 600 403C650 403 700 392 750 394.3C800 396.7 850 412.3 900 419.5C950 426.7 1000 425.3 1050 418.3C1100 411.3 1150 398.7 1175 392.3L1200 386L1200 501L1175 501C1150 501 1100 501 1050 501C1000 501 950 501 900 501C850 501 800 501 750 501C700 501 650 501 600 501C550 501 500 501 450 501C400 501 350 501 300 501C250 501 200 501 150 501C100 501 50 501 25 501L0 501Z" fill="#7f358e"></path><path d="M0 446L25 440.5C50 435 100 424 150 424.3C200 424.7 250 436.3 300 435.2C350 434 400 420 450 415.8C500 411.7 550 417.3 600 416.7C650 416 700 409 750 413.7C800 418.3 850 434.7 900 443.7C950 452.7 1000 454.3 1050 448.5C1100 442.7 1150 429.3 1175 422.7L1200 416L1200 501L1175 501C1150 501 1100 501 1050 501C1000 501 950 501 900 501C850 501 800 501 750 501C700 501 650 501 600 501C550 501 500 501 450 501C400 501 350 501 300 501C250 501 200 501 150 501C100 501 50 501 25 501L0 501Z" fill="#58337d"></path><path d="M0 439L25 439.5C50 440 100 441 150 446.7C200 452.3 250 462.7 300 468.7C350 474.7 400 476.3 450 471.7C500 467 550 456 600 449.7C650 443.3 700 441.7 750 444C800 446.3 850 452.7 900 452C950 451.3 1000 443.7 1050 440.2C1100 436.7 1150 437.3 1175 437.7L1200 438L1200 501L1175 501C1150 501 1100 501 1050 501C1000 501 950 501 900 501C850 501 800 501 750 501C700 501 650 501 600 501C550 501 500 501 450 501C400 501 350 501 300 501C250 501 200 501 150 501C100 501 50 501 25 501L0 501Z" fill="#352d68"></path></svg>