<svg id="visual" viewBox="0 0 540 960" width="540" height="960" xmlns="http://www.w3.org/2000/svg" xmlns:xlink="http://www.w3.org/1999/xlink" version="1.1"><rect x="0" y="0" width="540" height="960" fill="#1a1a1a"></rect><path d="M357 960L359 946.7C361 933.3 365 906.7 356.8 880C348.7 853.3 328.3 826.7 318.8 800C309.3 773.3 310.7 746.7 310 720C309.3 693.3 306.7 666.7 313 640C319.3 613.3 334.7 586.7 340.5 560C346.3 533.3 342.7 506.7 337.8 480C333 453.3 327 426.7 325.5 400C324 373.3 327 346.7 331.2 320C335.3 293.3 340.7 266.7 345.5 240C350.3 213.3 354.7 186.7 347.8 160C341 133.3 323 106.7 322.2 80C321.3 53.3 337.7 26.7 345.8 13.3L354 0L540 0L540 13.3C540 26.7 540 53.3 540 80C540 106.7 540 133.3 540 160C540 186.7 540 213.3 540 240C540 266.7 540 293.3 540 320C540 346.7 540 373.3 540 400C540 426.7 540 453.3 540 480C540 506.7 540 533.3 540 560C540 586.7 540 613.3 540 640C540 666.7 540 693.3 540 720C540 746.7 540 773.3 540 800C540 826.7 540 853.3 540 880C540 906.7 540 933.3 540 946.7L540 960Z" fill="#352d68"></path><path d="M348 960L346.5 946.7C345 933.3 342 906.7 346.7 880C351.3 853.3 363.7 826.7 372.7 800C381.7 773.3 387.3 746.7 386.5 720C385.7 693.3 378.3 666.7 369.8 640C361.3 613.3 351.7 586.7 354.8 560C358 533.3 374 506.7 382.3 480C390.7 453.3 391.3 426.7 382.2 400C373 373.3 354 346.7 351.2 320C348.3 293.3 361.7 266.7 369.2 240C376.7 213.3 378.3 186.7 373.8 160C369.3 133.3 358.7 106.7 357.5 80C356.3 53.3 364.7 26.7 368.8 13.3L373 0L540 0L540 13.3C540 26.7 540 53.3 540 80C540 106.7 540 133.3 540 160C540 186.7 540 213.3 540 240C540 266.7 540 293.3 540 320C540 346.7 540 373.3 540 400C540 426.7 540 453.3 540 480C540 506.7 540 533.3 540 560C540 586.7 540 613.3 540 640C540 666.7 540 693.3 540 720C540 746.7 540 773.3 540 800C540 826.7 540 853.3 540 880C540 906.7 540 933.3 540 946.7L540 960Z" fill="#4a3176"></path><path d="M412 960L403.3 946.7C394.7 933.3 377.3 906.7 369.8 880C362.3 853.3 364.7 826.7 367.2 800C369.7 773.3 372.3 746.7 373.2 720C374 693.3 373 666.7 376.8 640C380.7 613.3 389.3 586.7 392 560C394.7 533.3 391.3 506.7 392 480C392.7 453.3 397.3 426.7 391.5 400C385.7 373.3 369.3 346.7 368.2 320C367 293.3 381 266.7 390 240C399 213.3 403 186.7 403.5 160C404 133.3 401 106.7 398.3 80C395.7 53.3 393.3 26.7 392.2 13.3L391 0L540 0L540 13.3C540 26.7 540 53.3 540 80C540 106.7 540 133.3 540 160C540 186.7 540 213.3 540 240C540 266.7 540 293.3 540 320C540 346.7 540 373.3 540 400C540 426.7 540 453.3 540 480C540 506.7 540 533.3 540 560C540 586.7 540 613.3 540 640C540 666.7 540 693.3 540 720C540 746.7 540 773.3 540 800C540 826.7 540 853.3 540 880C540 906.7 540 933.3 540 946.7L540 960Z" fill="#613482"></path><path d="M418 960L412.2 946.7C406.3 933.3 394.7 906.7 391.2 880C387.7 853.3 392.3 826.7 399.3 800C406.3 773.3 415.7 746.7 418.2 720C420.7 693.3 416.3 666.7 416.2 640C416 613.3 420 586.7 417.3 560C414.7 533.3 405.3 506.7 398.7 480C392 453.3 388 426.7 388.8 400C389.7 373.3 395.3 346.7 397.7 320C400 293.3 399 266.7 398 240C397 213.3 396 186.7 398 160C400 133.3 405 106.7 410 80C415 53.3 420 26.7 422.5 13.3L425 0L540 0L540 13.3C540 26.7 540 53.3 540 80C540 106.7 540 133.3 540 160C540 186.7 540 213.3 540 240C540 266.7 540 293.3 540 320C540 346.7 540 373.3 540 400C540 426.7 540 453.3 540 480C540 506.7 540 533.3 540 560C540 586.7 540 613.3 540 640C540 666.7 540 693.3 540 720C540 746.7 540 773.3 540 800C540 826.7 540 853.3 540 880C540 906.7 540 933.3 540 946.7L540 960Z" fill="#7a358c"></path><path d="M445 960L438.7 946.7C432.3 933.3 419.7 906.7 418.2 880C416.7 853.3 426.3 826.7 427 800C427.7 773.3 419.3 746.7 416.8 720C414.3 693.3 417.7 666.7 421.5 640C425.3 613.3 429.7 586.7 428.7 560C427.7 533.3 421.3 506.7 415.8 480C410.3 453.3 405.7 426.7 403.7 400C401.7 373.3 402.3 346.7 409.8 320C417.3 293.3 431.7 266.7 435.7 240C439.7 213.3 433.3 186.7 429.8 160C426.3 133.3 425.7 106.7 429 80C432.3 53.3 439.7 26.7 443.3 13.3L447 0L540 0L540 13.3C540 26.7 540 53.3 540 80C540 106.7 540 133.3 540 160C540 186.7 540 213.3 540 240C540 266.7 540 293.3 540 320C540 346.7 540 373.3 540 400C540 426.7 540 453.3 540 480C540 506.7 540 533.3 540 560C540 586.7 540 613.3 540 640C540 666.7 540 693.3 540 720C540 746.7 540 773.3 540 800C540 826.7 540 853.3 540 880C540 906.7 540 933.3 540 946.7L540 960Z" fill="#943494"></path><path d="M432 960L435.7 946.7C439.3 933.3 446.7 906.7 445.7 880C444.7 853.3 435.3 826.7 433 800C430.7 773.3 435.3 746.7 437.7 720C440 693.3 440 666.7 438 640C436 613.3 432 586.7 433.2 560C434.3 533.3 440.7 506.7 446 480C451.3 453.3 455.7 426.7 455 400C454.3 373.3 448.7 346.7 445.7 320C442.7 293.3 442.3 266.7 440.5 240C438.7 213.3 435.3 186.7 438.2 160C441 133.3 450 106.7 454.3 80C458.7 53.3 458.3 26.7 458.2 13.3L458 0L540 0L540 13.3C540 26.7 540 53.3 540 80C540 106.7 540 133.3 540 160C540 186.7 540 213.3 540 240C540 266.7 540 293.3 540 320C540 346.7 540 373.3 540 400C540 426.7 540 453.3 540 480C540 506.7 540 533.3 540 560C540 586.7 540 613.3 540 640C540 666.7 540 693.3 540 720C540 746.7 540 773.3 540 800C540 826.7 540 853.3 540 880C540 906.7 540 933.3 540 946.7L540 960Z" fill="#af319a"></path><path d="M456 960L460.5 946.7C465 933.3 474 906.7 476.5 880C479 853.3 475 826.7 473.5 800C472 773.3 473 746.7 470.7 720C468.3 693.3 462.7 666.7 459 640C455.3 613.3 453.7 586.7 454.3 560C455 533.3 458 506.7 460.2 480C462.3 453.3 463.7 426.7 464.5 400C465.3 373.3 465.7 346.7 465.3 320C465 293.3 464 266.7 465 240C466 213.3 469 186.7 467.3 160C465.7 133.3 459.3 106.7 461 80C462.7 53.3 472.3 26.7 477.2 13.3L482 0L540 0L540 13.3C540 26.7 540 53.3 540 80C540 106.7 540 133.3 540 160C540 186.7 540 213.3 540 240C540 266.7 540 293.3 540 320C540 346.7 540 373.3 540 400C540 426.7 540 453.3 540 480C540 506.7 540 533.3 540 560C540 586.7 540 613.3 540 640C540 666.7 540 693.3 540 720C540 746.7 540 773.3 540 800C540 826.7 540 853.3 540 880C540 906.7 540 933.3 540 946.7L540 960Z" fill="#ca2c9d"></path><path d="M478 960L480.2 946.7C482.3 933.3 486.7 906.7 487.7 880C488.7 853.3 486.3 826.7 484.7 800C483 773.3 482 746.7 480.5 720C479 693.3 477 666.7 477.3 640C477.7 613.3 480.3 586.7 483.8 560C487.3 533.3 491.7 506.7 492 480C492.3 453.3 488.7 426.7 488.5 400C488.3 373.3 491.7 346.7 494 320C496.3 293.3 497.7 266.7 495.7 240C493.7 213.3 488.3 186.7 487.2 160C486 133.3 489 106.7 488.3 80C487.7 53.3 483.3 26.7 481.2 13.3L479 0L540 0L540 13.3C540 26.7 540 53.3 540 80C540 106.7 540 133.3 540 160C540 186.7 540 213.3 540 240C540 266.7 540 293.3 540 320C540 346.7 540 373.3 540 400C540 426.7 540 453.3 540 480C540 506.7 540 533.3 540 560C540 586.7 540 613.3 540 640C540 666.7 540 693.3 540 720C540 746.7 540 773.3 540 800C540 826.7 540 853.3 540 880C540 906.7 540 933.3 540 946.7L540 960Z" fill="#e5249d"></path><path d="M512 960L510.8 946.7C509.7 933.3 507.3 906.7 508.2 880C509 853.3 513 826.7 514 800C515 773.3 513 746.7 511.5 720C510 693.3 509 666.7 508.2 640C507.3 613.3 506.7 586.7 505.8 560C505 533.3 504 506.7 505.8 480C507.7 453.3 512.3 426.7 513.2 400C514 373.3 511 346.7 510.7 320C510.3 293.3 512.7 266.7 511.5 240C510.3 213.3 505.7 186.7 506.2 160C506.7 133.3 512.3 106.7 513.3 80C514.3 53.3 510.7 26.7 508.8 13.3L507 0L540 0L540 13.3C540 26.7 540 53.3 540 80C540 106.7 540 133.3 540 160C540 186.7 540 213.3 540 240C540 266.7 540 293.3 540 320C540 346.7 540 373.3 540 400C540 426.7 540 453.3 540 480C540 506.7 540 533.3 540 560C540 586.7 540 613.3 540 640C540 666.7 540 693.3 540 720C540 746.7 540 773.3 540 800C540 826.7 540 853.3 540 880C540 906.7 540 933.3 540 946.7L540 960Z" fill="#ff189b"></path></svg>