<svg id="visual" viewBox="0 0 1200 500" width="1200" height="500" xmlns="http://www.w3.org/2000/svg" xmlns:xlink="http://www.w3.org/1999/xlink" version="1.1"><rect x="0" y="0" width="1200" height="500" fill="#FF189B"></rect><path d="M0 341L25 326.2C50 311.3 100 281.7 150 281.5C200 281.3 250 310.7 300 326C350 341.3 400 342.7 450 338.3C500 334 550 324 600 311.2C650 298.3 700 282.7 750 286.2C800 289.7 850 312.3 900 308C950 303.7 1000 272.3 1050 274C1100 275.7 1150 310.3 1175 327.7L1200 345L1200 501L1175 501C1150 501 1100 501 1050 501C1000 501 950 501 900 501C850 501 800 501 750 501C700 501 650 501 600 501C550 501 500 501 450 501C400 501 350 501 300 501C250 501 200 501 150 501C100 501 50 501 25 501L0 501Z" fill="#ff189b"></path><path d="M0 362L25 347.8C50 333.7 100 305.3 150 301.7C200 298 250 319 300 323C350 327 400 314 450 312.2C500 310.3 550 319.7 600 329C650 338.3 700 347.7 750 351.2C800 354.7 850 352.3 900 346.8C950 341.3 1000 332.7 1050 337.2C1100 341.7 1150 359.3 1175 368.2L1200 377L1200 501L1175 501C1150 501 1100 501 1050 501C1000 501 950 501 900 501C850 501 800 501 750 501C700 501 650 501 600 501C550 501 500 501 450 501C400 501 350 501 300 501C250 501 200 501 150 501C100 501 50 501 25 501L0 501Z" fill="#d4299d"></path><path d="M0 330L25 338.7C50 347.3 100 364.7 150 369.3C200 374 250 366 300 361.5C350 357 400 356 450 355.5C500 355 550 355 600 353.3C650 351.7 700 348.3 750 347.7C800 347 850 349 900 354C950 359 1000 367 1050 369.3C1100 371.7 1150 368.3 1175 366.7L1200 365L1200 501L1175 501C1150 501 1100 501 1050 501C1000 501 950 501 900 501C850 501 800 501 750 501C700 501 650 501 600 501C550 501 500 501 450 501C400 501 350 501 300 501C250 501 200 501 150 501C100 501 50 501 25 501L0 501Z" fill="#a93299"></path><path d="M0 363L25 362.8C50 362.7 100 362.3 150 371.2C200 380 250 398 300 406.2C350 414.3 400 412.7 450 404.8C500 397 550 383 600 385.8C650 388.7 700 408.3 750 408C800 407.7 850 387.3 900 375C950 362.7 1000 358.3 1050 364.7C1100 371 1150 388 1175 396.5L1200 405L1200 501L1175 501C1150 501 1100 501 1050 501C1000 501 950 501 900 501C850 501 800 501 750 501C700 501 650 501 600 501C550 501 500 501 450 501C400 501 350 501 300 501C250 501 200 501 150 501C100 501 50 501 25 501L0 501Z" fill="#7f358e"></path><path d="M0 439L25 432.7C50 426.3 100 413.7 150 410.7C200 407.7 250 414.3 300 419.2C350 424 400 427 450 422.2C500 417.3 550 404.7 600 401.3C650 398 700 404 750 414.3C800 424.7 850 439.3 900 442.3C950 445.3 1000 436.7 1050 426.8C1100 417 1150 406 1175 400.5L1200 395L1200 501L1175 501C1150 501 1100 501 1050 501C1000 501 950 501 900 501C850 501 800 501 750 501C700 501 650 501 600 501C550 501 500 501 450 501C400 501 350 501 300 501C250 501 200 501 150 501C100 501 50 501 25 501L0 501Z" fill="#58337d"></path><path d="M0 450L25 451.2C50 452.3 100 454.7 150 458C200 461.3 250 465.7 300 467.5C350 469.3 400 468.7 450 470.5C500 472.3 550 476.7 600 475C650 473.3 700 465.7 750 464.5C800 463.3 850 468.7 900 468.7C950 468.7 1000 463.3 1050 456.8C1100 450.3 1150 442.7 1175 438.8L1200 435L1200 501L1175 501C1150 501 1100 501 1050 501C1000 501 950 501 900 501C850 501 800 501 750 501C700 501 650 501 600 501C550 501 500 501 450 501C400 501 350 501 300 501C250 501 200 501 150 501C100 501 50 501 25 501L0 501Z" fill="#352d68"></path></svg>