<svg id="visual" viewBox="0 0 675 900" width="675" height="900" xmlns="http://www.w3.org/2000/svg" xmlns:xlink="http://www.w3.org/1999/xlink" version="1.1"><rect x="0" y="0" width="675" height="900" fill="#1a1a1a"></rect><path d="M366 900L364.5 890C363 880 360 860 368.3 840C376.7 820 396.3 800 400.3 780C404.3 760 392.7 740 386.8 720C381 700 381 680 380.2 660C379.3 640 377.7 620 385.2 600C392.7 580 409.3 560 410.3 540C411.3 520 396.7 500 394.7 480C392.7 460 403.3 440 403.5 420C403.7 400 393.3 380 384.8 360C376.3 340 369.7 320 374.2 300C378.7 280 394.3 260 395.5 240C396.7 220 383.3 200 378 180C372.7 160 375.3 140 376.5 120C377.7 100 377.3 80 385.2 60C393 40 409 20 417 10L425 0L675 0L675 10C675 20 675 40 675 60C675 80 675 100 675 120C675 140 675 160 675 180C675 200 675 220 675 240C675 260 675 280 675 300C675 320 675 340 675 360C675 380 675 400 675 420C675 440 675 460 675 480C675 500 675 520 675 540C675 560 675 580 675 600C675 620 675 640 675 660C675 680 675 700 675 720C675 740 675 760 675 780C675 800 675 820 675 840C675 860 675 880 675 890L675 900Z" fill="#352d68"></path><path d="M441 900L441.7 890C442.3 880 443.7 860 442.2 840C440.7 820 436.3 800 438.2 780C440 760 448 740 448.8 720C449.7 700 443.3 680 442.7 660C442 640 447 620 444.3 600C441.7 580 431.3 560 427.8 540C424.3 520 427.7 500 427 480C426.3 460 421.7 440 422.8 420C424 400 431 380 428.2 360C425.3 340 412.7 320 415.3 300C418 280 436 260 439.5 240C443 220 432 200 421.3 180C410.7 160 400.3 140 402.3 120C404.3 100 418.7 80 418.7 60C418.7 40 404.3 20 397.2 10L390 0L675 0L675 10C675 20 675 40 675 60C675 80 675 100 675 120C675 140 675 160 675 180C675 200 675 220 675 240C675 260 675 280 675 300C675 320 675 340 675 360C675 380 675 400 675 420C675 440 675 460 675 480C675 500 675 520 675 540C675 560 675 580 675 600C675 620 675 640 675 660C675 680 675 700 675 720C675 740 675 760 675 780C675 800 675 820 675 840C675 860 675 880 675 890L675 900Z" fill="#4a3176"></path><path d="M482 900L479.3 890C476.7 880 471.3 860 466.5 840C461.7 820 457.3 800 455.7 780C454 760 455 740 456.5 720C458 700 460 680 460.3 660C460.7 640 459.3 620 460.3 600C461.3 580 464.7 560 459.8 540C455 520 442 500 436.5 480C431 460 433 440 438.5 420C444 400 453 380 458.7 360C464.3 340 466.7 320 463.5 300C460.3 280 451.7 260 445.5 240C439.3 220 435.7 200 440.5 180C445.3 160 458.7 140 464.2 120C469.7 100 467.3 80 466.5 60C465.7 40 466.3 20 466.7 10L467 0L675 0L675 10C675 20 675 40 675 60C675 80 675 100 675 120C675 140 675 160 675 180C675 200 675 220 675 240C675 260 675 280 675 300C675 320 675 340 675 360C675 380 675 400 675 420C675 440 675 460 675 480C675 500 675 520 675 540C675 560 675 580 675 600C675 620 675 640 675 660C675 680 675 700 675 720C675 740 675 760 675 780C675 800 675 820 675 840C675 860 675 880 675 890L675 900Z" fill="#613482"></path><path d="M469 900L472.8 890C476.7 880 484.3 860 484.2 840C484 820 476 800 474.5 780C473 760 478 740 481.5 720C485 700 487 680 490.5 660C494 640 499 620 499.7 600C500.3 580 496.7 560 494.2 540C491.7 520 490.3 500 490 480C489.7 460 490.3 440 488 420C485.7 400 480.3 380 483 360C485.7 340 496.3 320 501 300C505.7 280 504.3 260 500.5 240C496.7 220 490.3 200 486.2 180C482 160 480 140 475.7 120C471.3 100 464.7 80 465.5 60C466.3 40 474.7 20 478.8 10L483 0L675 0L675 10C675 20 675 40 675 60C675 80 675 100 675 120C675 140 675 160 675 180C675 200 675 220 675 240C675 260 675 280 675 300C675 320 675 340 675 360C675 380 675 400 675 420C675 440 675 460 675 480C675 500 675 520 675 540C675 560 675 580 675 600C675 620 675 640 675 660C675 680 675 700 675 720C675 740 675 760 675 780C675 800 675 820 675 840C675 860 675 880 675 890L675 900Z" fill="#7a358c"></path><path d="M531 900L524.5 890C518 880 505 860 500.3 840C495.7 820 499.3 800 504 780C508.7 760 514.3 740 516.3 720C518.3 700 516.7 680 513.7 660C510.7 640 506.3 620 508.8 600C511.3 580 520.7 560 523.8 540C527 520 524 500 524.3 480C524.7 460 528.3 440 524.8 420C521.3 400 510.7 380 507.2 360C503.7 340 507.3 320 510.3 300C513.3 280 515.7 260 519 240C522.3 220 526.7 200 525.3 180C524 160 517 140 514 120C511 100 512 80 515.8 60C519.7 40 526.3 20 529.7 10L533 0L675 0L675 10C675 20 675 40 675 60C675 80 675 100 675 120C675 140 675 160 675 180C675 200 675 220 675 240C675 260 675 280 675 300C675 320 675 340 675 360C675 380 675 400 675 420C675 440 675 460 675 480C675 500 675 520 675 540C675 560 675 580 675 600C675 620 675 640 675 660C675 680 675 700 675 720C675 740 675 760 675 780C675 800 675 820 675 840C675 860 675 880 675 890L675 900Z" fill="#943494"></path><path d="M557 900L555.7 890C554.3 880 551.7 860 552.8 840C554 820 559 800 556.7 780C554.3 760 544.7 740 538 720C531.3 700 527.7 680 526.3 660C525 640 526 620 527.5 600C529 580 531 560 535.5 540C540 520 547 500 546.2 480C545.3 460 536.7 440 534.2 420C531.7 400 535.3 380 536.7 360C538 340 537 320 539.3 300C541.7 280 547.3 260 546.8 240C546.3 220 539.7 200 536.3 180C533 160 533 140 537.5 120C542 100 551 80 555.8 60C560.7 40 561.3 20 561.7 10L562 0L675 0L675 10C675 20 675 40 675 60C675 80 675 100 675 120C675 140 675 160 675 180C675 200 675 220 675 240C675 260 675 280 675 300C675 320 675 340 675 360C675 380 675 400 675 420C675 440 675 460 675 480C675 500 675 520 675 540C675 560 675 580 675 600C675 620 675 640 675 660C675 680 675 700 675 720C675 740 675 760 675 780C675 800 675 820 675 840C675 860 675 880 675 890L675 900Z" fill="#af319a"></path><path d="M593 900L589 890C585 880 577 860 572.2 840C567.3 820 565.7 800 564.8 780C564 760 564 740 567.3 720C570.7 700 577.3 680 577.3 660C577.3 640 570.7 620 571.7 600C572.7 580 581.3 560 582.2 540C583 520 576 500 572.3 480C568.7 460 568.3 440 571.3 420C574.3 400 580.7 380 584.2 360C587.7 340 588.3 320 583.3 300C578.3 280 567.7 260 565.7 240C563.7 220 570.3 200 571.3 180C572.3 160 567.7 140 566.7 120C565.7 100 568.3 80 573.2 60C578 40 585 20 588.5 10L592 0L675 0L675 10C675 20 675 40 675 60C675 80 675 100 675 120C675 140 675 160 675 180C675 200 675 220 675 240C675 260 675 280 675 300C675 320 675 340 675 360C675 380 675 400 675 420C675 440 675 460 675 480C675 500 675 520 675 540C675 560 675 580 675 600C675 620 675 640 675 660C675 680 675 700 675 720C675 740 675 760 675 780C675 800 675 820 675 840C675 860 675 880 675 890L675 900Z" fill="#ca2c9d"></path><path d="M605 900L606.7 890C608.3 880 611.7 860 611.8 840C612 820 609 800 609.5 780C610 760 614 740 612.8 720C611.7 700 605.3 680 604.2 660C603 640 607 620 610 600C613 580 615 560 616.5 540C618 520 619 500 619.3 480C619.7 460 619.3 440 616 420C612.7 400 606.3 380 602.8 360C599.3 340 598.7 320 600.3 300C602 280 606 260 608.5 240C611 220 612 200 610 180C608 160 603 140 603.2 120C603.3 100 608.7 80 609.7 60C610.7 40 607.3 20 605.7 10L604 0L675 0L675 10C675 20 675 40 675 60C675 80 675 100 675 120C675 140 675 160 675 180C675 200 675 220 675 240C675 260 675 280 675 300C675 320 675 340 675 360C675 380 675 400 675 420C675 440 675 460 675 480C675 500 675 520 675 540C675 560 675 580 675 600C675 620 675 640 675 660C675 680 675 700 675 720C675 740 675 760 675 780C675 800 675 820 675 840C675 860 675 880 675 890L675 900Z" fill="#e5249d"></path><path d="M629 900L629.7 890C630.3 880 631.7 860 632.7 840C633.7 820 634.3 800 636.7 780C639 760 643 740 644.3 720C645.7 700 644.3 680 643.8 660C643.3 640 643.7 620 642.8 600C642 580 640 560 640 540C640 520 642 500 643.3 480C644.7 460 645.3 440 642 420C638.7 400 631.3 380 629 360C626.7 340 629.3 320 631 300C632.7 280 633.3 260 632.8 240C632.3 220 630.7 200 631.5 180C632.3 160 635.7 140 637.8 120C640 100 641 80 639.7 60C638.3 40 634.7 20 632.8 10L631 0L675 0L675 10C675 20 675 40 675 60C675 80 675 100 675 120C675 140 675 160 675 180C675 200 675 220 675 240C675 260 675 280 675 300C675 320 675 340 675 360C675 380 675 400 675 420C675 440 675 460 675 480C675 500 675 520 675 540C675 560 675 580 675 600C675 620 675 640 675 660C675 680 675 700 675 720C675 740 675 760 675 780C675 800 675 820 675 840C675 860 675 880 675 890L675 900Z" fill="#ff189b"></path></svg>