<svg id="visual" viewBox="0 0 675 900" width="675" height="900" xmlns="http://www.w3.org/2000/svg" xmlns:xlink="http://www.w3.org/1999/xlink" version="1.1"><rect x="0" y="0" width="675" height="900" fill="#1a1a1a"></rect><path d="M570 0L559.7 18.8C549.3 37.7 528.7 75.3 508.8 112.8C489 150.3 470 187.7 459.5 225.2C449 262.7 447 300.3 462.8 337.8C478.7 375.3 512.3 412.7 512.3 450.2C512.3 487.7 478.7 525.3 456.3 562.8C434 600.3 423 637.7 423.7 675.2C424.3 712.7 436.7 750.3 457.5 787.8C478.3 825.3 507.7 862.7 522.3 881.3L537 900L0 900L0 881.3C0 862.7 0 825.3 0 787.8C0 750.3 0 712.7 0 675.2C0 637.7 0 600.3 0 562.8C0 525.3 0 487.7 0 450.2C0 412.7 0 375.3 0 337.8C0 300.3 0 262.7 0 225.2C0 187.7 0 150.3 0 112.8C0 75.3 0 37.7 0 18.8L0 0Z" fill="#ff189b"></path><path d="M495 0L487.8 18.8C480.7 37.7 466.3 75.3 468.3 112.8C470.3 150.3 488.7 187.7 485.2 225.2C481.7 262.7 456.3 300.3 451.8 337.8C447.3 375.3 463.7 412.7 459.8 450.2C456 487.7 432 525.3 430.2 562.8C428.3 600.3 448.7 637.7 450.8 675.2C453 712.7 437 750.3 434.5 787.8C432 825.3 443 862.7 448.5 881.3L454 900L0 900L0 881.3C0 862.7 0 825.3 0 787.8C0 750.3 0 712.7 0 675.2C0 637.7 0 600.3 0 562.8C0 525.3 0 487.7 0 450.2C0 412.7 0 375.3 0 337.8C0 300.3 0 262.7 0 225.2C0 187.7 0 150.3 0 112.8C0 75.3 0 37.7 0 18.8L0 0Z" fill="#dc279d"></path><path d="M374 0L375.8 18.8C377.7 37.7 381.3 75.3 381.8 112.8C382.3 150.3 379.7 187.7 372 225.2C364.3 262.7 351.7 300.3 355 337.8C358.3 375.3 377.7 412.7 363 450.2C348.3 487.7 299.7 525.3 290.5 562.8C281.3 600.3 311.7 637.7 332.7 675.2C353.7 712.7 365.3 750.3 373 787.8C380.7 825.3 384.3 862.7 386.2 881.3L388 900L0 900L0 881.3C0 862.7 0 825.3 0 787.8C0 750.3 0 712.7 0 675.2C0 637.7 0 600.3 0 562.8C0 525.3 0 487.7 0 450.2C0 412.7 0 375.3 0 337.8C0 300.3 0 262.7 0 225.2C0 187.7 0 150.3 0 112.8C0 75.3 0 37.7 0 18.8L0 0Z" fill="#b8309b"></path><path d="M320 0L326.5 18.8C333 37.7 346 75.3 348.3 112.8C350.7 150.3 342.3 187.7 316.7 225.2C291 262.7 248 300.3 237.7 337.8C227.3 375.3 249.7 412.7 267.7 450.2C285.7 487.7 299.3 525.3 290.3 562.8C281.3 600.3 249.7 637.7 237.5 675.2C225.3 712.7 232.7 750.3 239.2 787.8C245.7 825.3 251.3 862.7 254.2 881.3L257 900L0 900L0 881.3C0 862.7 0 825.3 0 787.8C0 750.3 0 712.7 0 675.2C0 637.7 0 600.3 0 562.8C0 525.3 0 487.7 0 450.2C0 412.7 0 375.3 0 337.8C0 300.3 0 262.7 0 225.2C0 187.7 0 150.3 0 112.8C0 75.3 0 37.7 0 18.8L0 0Z" fill="#943494"></path><path d="M149 0L152 18.8C155 37.7 161 75.3 170.3 112.8C179.7 150.3 192.3 187.7 207.3 225.2C222.3 262.7 239.7 300.3 229.3 337.8C219 375.3 181 412.7 176.2 450.2C171.3 487.7 199.7 525.3 211.7 562.8C223.7 600.3 219.3 637.7 224 675.2C228.7 712.7 242.3 750.3 242.2 787.8C242 825.3 228 862.7 221 881.3L214 900L0 900L0 881.3C0 862.7 0 825.3 0 787.8C0 750.3 0 712.7 0 675.2C0 637.7 0 600.3 0 562.8C0 525.3 0 487.7 0 450.2C0 412.7 0 375.3 0 337.8C0 300.3 0 262.7 0 225.2C0 187.7 0 150.3 0 112.8C0 75.3 0 37.7 0 18.8L0 0Z" fill="#723589"></path><path d="M144 0L147 18.8C150 37.7 156 75.3 159.5 112.8C163 150.3 164 187.7 152.2 225.2C140.3 262.7 115.7 300.3 120.3 337.8C125 375.3 159 412.7 170.2 450.2C181.3 487.7 169.7 525.3 161.8 562.8C154 600.3 150 637.7 148 675.2C146 712.7 146 750.3 140.2 787.8C134.3 825.3 122.7 862.7 116.8 881.3L111 900L0 900L0 881.3C0 862.7 0 825.3 0 787.8C0 750.3 0 712.7 0 675.2C0 637.7 0 600.3 0 562.8C0 525.3 0 487.7 0 450.2C0 412.7 0 375.3 0 337.8C0 300.3 0 262.7 0 225.2C0 187.7 0 150.3 0 112.8C0 75.3 0 37.7 0 18.8L0 0Z" fill="#52327a"></path><path d="M71 0L71.8 18.8C72.7 37.7 74.3 75.3 72.2 112.8C70 150.3 64 187.7 67.5 225.2C71 262.7 84 300.3 84.3 337.8C84.7 375.3 72.3 412.7 62.5 450.2C52.7 487.7 45.3 525.3 52.3 562.8C59.3 600.3 80.7 637.7 82.8 675.2C85 712.7 68 750.3 61 787.8C54 825.3 57 862.7 58.5 881.3L60 900L0 900L0 881.3C0 862.7 0 825.3 0 787.8C0 750.3 0 712.7 0 675.2C0 637.7 0 600.3 0 562.8C0 525.3 0 487.7 0 450.2C0 412.7 0 375.3 0 337.8C0 300.3 0 262.7 0 225.2C0 187.7 0 150.3 0 112.8C0 75.3 0 37.7 0 18.8L0 0Z" fill="#352d68"></path></svg>