<svg id="visual" viewBox="0 0 1200 500" width="1200" height="500" xmlns="http://www.w3.org/2000/svg" xmlns:xlink="http://www.w3.org/1999/xlink" version="1.1"><rect x="0" y="0" width="1200" height="500" fill="#FF189B"></rect><path d="M0 254L13.3 253.3C26.7 252.7 53.3 251.3 80 253.2C106.7 255 133.3 260 160 272.2C186.7 284.3 213.3 303.7 240 303C266.7 302.3 293.3 281.7 320 284.3C346.7 287 373.3 313 400 319.3C426.7 325.7 453.3 312.3 480 302C506.7 291.7 533.3 284.3 560 283.5C586.7 282.7 613.3 288.3 640 288.7C666.7 289 693.3 284 720 287.2C746.7 290.3 773.3 301.7 800 300C826.7 298.3 853.3 283.7 880 275C906.7 266.3 933.3 263.7 960 263.3C986.7 263 1013.3 265 1040 272.8C1066.7 280.7 1093.3 294.3 1120 294.2C1146.7 294 1173.3 280 1186.7 273L1200 266L1200 501L1186.7 501C1173.3 501 1146.7 501 1120 501C1093.3 501 1066.7 501 1040 501C1013.3 501 986.7 501 960 501C933.3 501 906.7 501 880 501C853.3 501 826.7 501 800 501C773.3 501 746.7 501 720 501C693.3 501 666.7 501 640 501C613.3 501 586.7 501 560 501C533.3 501 506.7 501 480 501C453.3 501 426.7 501 400 501C373.3 501 346.7 501 320 501C293.3 501 266.7 501 240 501C213.3 501 186.7 501 160 501C133.3 501 106.7 501 80 501C53.3 501 26.7 501 13.3 501L0 501Z" fill="#ff189b"></path><path d="M0 349L13.3 340.7C26.7 332.3 53.3 315.7 80 318.3C106.7 321 133.3 343 160 345.5C186.7 348 213.3 331 240 317.8C266.7 304.7 293.3 295.3 320 299C346.7 302.7 373.3 319.3 400 327.3C426.7 335.3 453.3 334.7 480 332.7C506.7 330.7 533.3 327.3 560 319.2C586.7 311 613.3 298 640 299C666.7 300 693.3 315 720 325.3C746.7 335.7 773.3 341.3 800 340.8C826.7 340.3 853.3 333.7 880 336.3C906.7 339 933.3 351 960 344.3C986.7 337.7 1013.3 312.3 1040 299.7C1066.7 287 1093.3 287 1120 295.8C1146.7 304.7 1173.3 322.3 1186.7 331.2L1200 340L1200 501L1186.7 501C1173.3 501 1146.7 501 1120 501C1093.3 501 1066.7 501 1040 501C1013.3 501 986.7 501 960 501C933.3 501 906.7 501 880 501C853.3 501 826.7 501 800 501C773.3 501 746.7 501 720 501C693.3 501 666.7 501 640 501C613.3 501 586.7 501 560 501C533.3 501 506.7 501 480 501C453.3 501 426.7 501 400 501C373.3 501 346.7 501 320 501C293.3 501 266.7 501 240 501C213.3 501 186.7 501 160 501C133.3 501 106.7 501 80 501C53.3 501 26.7 501 13.3 501L0 501Z" fill="#d4299d"></path><path d="M0 376L13.3 376.2C26.7 376.3 53.3 376.7 80 372.2C106.7 367.7 133.3 358.3 160 353.2C186.7 348 213.3 347 240 348.7C266.7 350.3 293.3 354.7 320 361.2C346.7 367.7 373.3 376.3 400 378.8C426.7 381.3 453.3 377.7 480 375.3C506.7 373 533.3 372 560 369C586.7 366 613.3 361 640 363.3C666.7 365.7 693.3 375.3 720 372.8C746.7 370.3 773.3 355.7 800 345.3C826.7 335 853.3 329 880 330C906.7 331 933.3 339 960 345.3C986.7 351.7 1013.3 356.3 1040 357.3C1066.7 358.3 1093.3 355.7 1120 349.7C1146.7 343.7 1173.3 334.3 1186.7 329.7L1200 325L1200 501L1186.7 501C1173.3 501 1146.7 501 1120 501C1093.3 501 1066.7 501 1040 501C1013.3 501 986.7 501 960 501C933.3 501 906.7 501 880 501C853.3 501 826.7 501 800 501C773.3 501 746.7 501 720 501C693.3 501 666.7 501 640 501C613.3 501 586.7 501 560 501C533.3 501 506.7 501 480 501C453.3 501 426.7 501 400 501C373.3 501 346.7 501 320 501C293.3 501 266.7 501 240 501C213.3 501 186.7 501 160 501C133.3 501 106.7 501 80 501C53.3 501 26.7 501 13.3 501L0 501Z" fill="#a93299"></path><path d="M0 417L13.3 413C26.7 409 53.3 401 80 399C106.7 397 133.3 401 160 403C186.7 405 213.3 405 240 399.7C266.7 394.3 293.3 383.7 320 386.2C346.7 388.7 373.3 404.3 400 412.5C426.7 420.7 453.3 421.3 480 416.5C506.7 411.7 533.3 401.3 560 401.3C586.7 401.3 613.3 411.7 640 412.3C666.7 413 693.3 404 720 399.7C746.7 395.3 773.3 395.7 800 398.2C826.7 400.7 853.3 405.3 880 407.7C906.7 410 933.3 410 960 405C986.7 400 1013.3 390 1040 389C1066.7 388 1093.3 396 1120 403.2C1146.7 410.3 1173.3 416.7 1186.7 419.8L1200 423L1200 501L1186.7 501C1173.3 501 1146.7 501 1120 501C1093.3 501 1066.7 501 1040 501C1013.3 501 986.7 501 960 501C933.3 501 906.7 501 880 501C853.3 501 826.7 501 800 501C773.3 501 746.7 501 720 501C693.3 501 666.7 501 640 501C613.3 501 586.7 501 560 501C533.3 501 506.7 501 480 501C453.3 501 426.7 501 400 501C373.3 501 346.7 501 320 501C293.3 501 266.7 501 240 501C213.3 501 186.7 501 160 501C133.3 501 106.7 501 80 501C53.3 501 26.7 501 13.3 501L0 501Z" fill="#7f358e"></path><path d="M0 409L13.3 409.2C26.7 409.3 53.3 409.7 80 411.5C106.7 413.3 133.3 416.7 160 417.8C186.7 419 213.3 418 240 421.3C266.7 424.7 293.3 432.3 320 429.8C346.7 427.3 373.3 414.7 400 414.3C426.7 414 453.3 426 480 429.8C506.7 433.7 533.3 429.3 560 425.7C586.7 422 613.3 419 640 414.5C666.7 410 693.3 404 720 409.5C746.7 415 773.3 432 800 437.8C826.7 443.7 853.3 438.3 880 433.2C906.7 428 933.3 423 960 424.5C986.7 426 1013.3 434 1040 433.7C1066.7 433.3 1093.3 424.7 1120 418.8C1146.7 413 1173.3 410 1186.7 408.5L1200 407L1200 501L1186.7 501C1173.3 501 1146.7 501 1120 501C1093.3 501 1066.7 501 1040 501C1013.3 501 986.7 501 960 501C933.3 501 906.7 501 880 501C853.3 501 826.7 501 800 501C773.3 501 746.7 501 720 501C693.3 501 666.7 501 640 501C613.3 501 586.7 501 560 501C533.3 501 506.7 501 480 501C453.3 501 426.7 501 400 501C373.3 501 346.7 501 320 501C293.3 501 266.7 501 240 501C213.3 501 186.7 501 160 501C133.3 501 106.7 501 80 501C53.3 501 26.7 501 13.3 501L0 501Z" fill="#58337d"></path><path d="M0 437L13.3 440.5C26.7 444 53.3 451 80 456.2C106.7 461.3 133.3 464.7 160 467.8C186.7 471 213.3 474 240 470.2C266.7 466.3 293.3 455.7 320 453.3C346.7 451 373.3 457 400 461.8C426.7 466.7 453.3 470.3 480 471.3C506.7 472.3 533.3 470.7 560 467.3C586.7 464 613.3 459 640 458.7C666.7 458.3 693.3 462.7 720 464.2C746.7 465.7 773.3 464.3 800 463.8C826.7 463.3 853.3 463.7 880 459.5C906.7 455.3 933.3 446.7 960 448.7C986.7 450.7 1013.3 463.3 1040 466.3C1066.7 469.3 1093.3 462.7 1120 458C1146.7 453.3 1173.3 450.7 1186.7 449.3L1200 448L1200 501L1186.7 501C1173.3 501 1146.7 501 1120 501C1093.3 501 1066.7 501 1040 501C1013.3 501 986.7 501 960 501C933.3 501 906.7 501 880 501C853.3 501 826.7 501 800 501C773.3 501 746.7 501 720 501C693.3 501 666.7 501 640 501C613.3 501 586.7 501 560 501C533.3 501 506.7 501 480 501C453.3 501 426.7 501 400 501C373.3 501 346.7 501 320 501C293.3 501 266.7 501 240 501C213.3 501 186.7 501 160 501C133.3 501 106.7 501 80 501C53.3 501 26.7 501 13.3 501L0 501Z" fill="#352d68"></path></svg>