<svg id="visual" viewBox="0 0 1200 500" width="1200" height="500" xmlns="http://www.w3.org/2000/svg" xmlns:xlink="http://www.w3.org/1999/xlink" version="1.1"><rect x="0" y="0" width="1200" height="500" fill="#ff189b"></rect><path d="M0 252L16.7 255.7C33.3 259.3 66.7 266.7 100 272.5C133.3 278.3 166.7 282.7 200 273.7C233.3 264.7 266.7 242.3 300 243.7C333.3 245 366.7 270 400 273.8C433.3 277.7 466.7 260.3 500 255C533.3 249.7 566.7 256.3 600 254.2C633.3 252 666.7 241 700 249.5C733.3 258 766.7 286 800 289.8C833.3 293.7 866.7 273.3 900 265.5C933.3 257.7 966.7 262.3 1000 261C1033.3 259.7 1066.7 252.3 1100 253.2C1133.3 254 1166.7 263 1183.3 267.5L1200 272L1200 0L1183.3 0C1166.7 0 1133.3 0 1100 0C1066.7 0 1033.3 0 1000 0C966.7 0 933.3 0 900 0C866.7 0 833.3 0 800 0C766.7 0 733.3 0 700 0C666.7 0 633.3 0 600 0C566.7 0 533.3 0 500 0C466.7 0 433.3 0 400 0C366.7 0 333.3 0 300 0C266.7 0 233.3 0 200 0C166.7 0 133.3 0 100 0C66.7 0 33.3 0 16.7 0L0 0Z" fill="#ff189b"></path><path d="M0 272L16.7 268.8C33.3 265.7 66.7 259.3 100 248.5C133.3 237.7 166.7 222.3 200 222.8C233.3 223.3 266.7 239.7 300 245C333.3 250.3 366.7 244.7 400 245C433.3 245.3 466.7 251.7 500 242.5C533.3 233.3 566.7 208.7 600 206.3C633.3 204 666.7 224 700 231.5C733.3 239 766.7 234 800 238C833.3 242 866.7 255 900 262.7C933.3 270.3 966.7 272.7 1000 275.3C1033.3 278 1066.7 281 1100 274.7C1133.3 268.3 1166.7 252.7 1183.3 244.8L1200 237L1200 0L1183.3 0C1166.7 0 1133.3 0 1100 0C1066.7 0 1033.3 0 1000 0C966.7 0 933.3 0 900 0C866.7 0 833.3 0 800 0C766.7 0 733.3 0 700 0C666.7 0 633.3 0 600 0C566.7 0 533.3 0 500 0C466.7 0 433.3 0 400 0C366.7 0 333.3 0 300 0C266.7 0 233.3 0 200 0C166.7 0 133.3 0 100 0C66.7 0 33.3 0 16.7 0L0 0Z" fill="#d4299d"></path><path d="M0 144L16.7 155.7C33.3 167.3 66.7 190.7 100 205.5C133.3 220.3 166.7 226.7 200 221.8C233.3 217 266.7 201 300 197.8C333.3 194.7 366.7 204.3 400 208.3C433.3 212.3 466.7 210.7 500 208.2C533.3 205.7 566.7 202.3 600 197.5C633.3 192.7 666.7 186.3 700 183.3C733.3 180.3 766.7 180.7 800 180C833.3 179.3 866.7 177.7 900 182.7C933.3 187.7 966.7 199.3 1000 195.8C1033.3 192.3 1066.7 173.7 1100 174.3C1133.3 175 1166.7 195 1183.3 205L1200 215L1200 0L1183.3 0C1166.7 0 1133.3 0 1100 0C1066.7 0 1033.3 0 1000 0C966.7 0 933.3 0 900 0C866.7 0 833.3 0 800 0C766.7 0 733.3 0 700 0C666.7 0 633.3 0 600 0C566.7 0 533.3 0 500 0C466.7 0 433.3 0 400 0C366.7 0 333.3 0 300 0C266.7 0 233.3 0 200 0C166.7 0 133.3 0 100 0C66.7 0 33.3 0 16.7 0L0 0Z" fill="#a93299"></path><path d="M0 146L16.7 147.3C33.3 148.7 66.7 151.3 100 155C133.3 158.7 166.7 163.3 200 160.8C233.3 158.3 266.7 148.7 300 149.3C333.3 150 366.7 161 400 163.3C433.3 165.7 466.7 159.3 500 160.3C533.3 161.3 566.7 169.7 600 164.2C633.3 158.7 666.7 139.3 700 133.8C733.3 128.3 766.7 136.7 800 144.8C833.3 153 866.7 161 900 157.5C933.3 154 966.7 139 1000 129.3C1033.3 119.7 1066.7 115.3 1100 111.5C1133.3 107.7 1166.7 104.3 1183.3 102.7L1200 101L1200 0L1183.3 0C1166.7 0 1133.3 0 1100 0C1066.7 0 1033.3 0 1000 0C966.7 0 933.3 0 900 0C866.7 0 833.3 0 800 0C766.7 0 733.3 0 700 0C666.7 0 633.3 0 600 0C566.7 0 533.3 0 500 0C466.7 0 433.3 0 400 0C366.7 0 333.3 0 300 0C266.7 0 233.3 0 200 0C166.7 0 133.3 0 100 0C66.7 0 33.3 0 16.7 0L0 0Z" fill="#7f358e"></path><path d="M0 92L16.7 94.8C33.3 97.7 66.7 103.3 100 102.7C133.3 102 166.7 95 200 89.5C233.3 84 266.7 80 300 79C333.3 78 366.7 80 400 87C433.3 94 466.7 106 500 112.7C533.3 119.3 566.7 120.7 600 117.5C633.3 114.3 666.7 106.7 700 100C733.3 93.3 766.7 87.7 800 86.7C833.3 85.7 866.7 89.3 900 92.7C933.3 96 966.7 99 1000 99.5C1033.3 100 1066.7 98 1100 94.7C1133.3 91.3 1166.7 86.7 1183.3 84.3L1200 82L1200 0L1183.3 0C1166.7 0 1133.3 0 1100 0C1066.7 0 1033.3 0 1000 0C966.7 0 933.3 0 900 0C866.7 0 833.3 0 800 0C766.7 0 733.3 0 700 0C666.7 0 633.3 0 600 0C566.7 0 533.3 0 500 0C466.7 0 433.3 0 400 0C366.7 0 333.3 0 300 0C266.7 0 233.3 0 200 0C166.7 0 133.3 0 100 0C66.7 0 33.3 0 16.7 0L0 0Z" fill="#58337d"></path><path d="M0 83L16.7 79.7C33.3 76.3 66.7 69.7 100 63C133.3 56.3 166.7 49.7 200 50.5C233.3 51.3 266.7 59.7 300 58.7C333.3 57.7 366.7 47.3 400 49C433.3 50.7 466.7 64.3 500 64.7C533.3 65 566.7 52 600 44C633.3 36 666.7 33 700 33.5C733.3 34 766.7 38 800 44C833.3 50 866.7 58 900 60.7C933.3 63.3 966.7 60.7 1000 56.7C1033.3 52.7 1066.7 47.3 1100 44.2C1133.3 41 1166.7 40 1183.3 39.5L1200 39L1200 0L1183.3 0C1166.7 0 1133.3 0 1100 0C1066.7 0 1033.3 0 1000 0C966.7 0 933.3 0 900 0C866.7 0 833.3 0 800 0C766.7 0 733.3 0 700 0C666.7 0 633.3 0 600 0C566.7 0 533.3 0 500 0C466.7 0 433.3 0 400 0C366.7 0 333.3 0 300 0C266.7 0 233.3 0 200 0C166.7 0 133.3 0 100 0C66.7 0 33.3 0 16.7 0L0 0Z" fill="#352d68"></path></svg>