<svg id="visual" viewBox="0 0 675 900" width="675" height="900" xmlns="http://www.w3.org/2000/svg" xmlns:xlink="http://www.w3.org/1999/xlink" version="1.1"><rect x="0" y="0" width="675" height="900" fill="#1a1a1a"></rect><path d="M158 900L155 881.3C152 862.7 146 825.3 165.3 787.8C184.7 750.3 229.3 712.7 229 675.2C228.7 637.7 183.3 600.3 161.7 562.8C140 525.3 142 487.7 157.7 450.2C173.3 412.7 202.7 375.3 215.7 337.8C228.7 300.3 225.3 262.7 236.8 225.2C248.3 187.7 274.7 150.3 259.2 112.8C243.7 75.3 186.3 37.7 157.7 18.8L129 0L675 0L675 18.8C675 37.7 675 75.3 675 112.8C675 150.3 675 187.7 675 225.2C675 262.7 675 300.3 675 337.8C675 375.3 675 412.7 675 450.2C675 487.7 675 525.3 675 562.8C675 600.3 675 637.7 675 675.2C675 712.7 675 750.3 675 787.8C675 825.3 675 862.7 675 881.3L675 900Z" fill="#ff189b"></path><path d="M217 900L219.3 881.3C221.7 862.7 226.3 825.3 217.2 787.8C208 750.3 185 712.7 187.3 675.2C189.7 637.7 217.3 600.3 241.3 562.8C265.3 525.3 285.7 487.7 273.2 450.2C260.7 412.7 215.3 375.3 215.2 337.8C215 300.3 260 262.7 260.3 225.2C260.7 187.7 216.3 150.3 198.7 112.8C181 75.3 190 37.7 194.5 18.8L199 0L675 0L675 18.8C675 37.7 675 75.3 675 112.8C675 150.3 675 187.7 675 225.2C675 262.7 675 300.3 675 337.8C675 375.3 675 412.7 675 450.2C675 487.7 675 525.3 675 562.8C675 600.3 675 637.7 675 675.2C675 712.7 675 750.3 675 787.8C675 825.3 675 862.7 675 881.3L675 900Z" fill="#dc279d"></path><path d="M418 900L396.8 881.3C375.7 862.7 333.3 825.3 322.5 787.8C311.7 750.3 332.3 712.7 333.8 675.2C335.3 637.7 317.7 600.3 313.3 562.8C309 525.3 318 487.7 318.8 450.2C319.7 412.7 312.3 375.3 312.8 337.8C313.3 300.3 321.7 262.7 337.8 225.2C354 187.7 378 150.3 366 112.8C354 75.3 306 37.7 282 18.8L258 0L675 0L675 18.8C675 37.7 675 75.3 675 112.8C675 150.3 675 187.7 675 225.2C675 262.7 675 300.3 675 337.8C675 375.3 675 412.7 675 450.2C675 487.7 675 525.3 675 562.8C675 600.3 675 637.7 675 675.2C675 712.7 675 750.3 675 787.8C675 825.3 675 862.7 675 881.3L675 900Z" fill="#b8309b"></path><path d="M365 900L380.5 881.3C396 862.7 427 825.3 419.2 787.8C411.3 750.3 364.7 712.7 353.8 675.2C343 637.7 368 600.3 367.2 562.8C366.3 525.3 339.7 487.7 354.2 450.2C368.7 412.7 424.3 375.3 444.5 337.8C464.7 300.3 449.3 262.7 424.8 225.2C400.3 187.7 366.7 150.3 372.2 112.8C377.7 75.3 422.3 37.7 444.7 18.8L467 0L675 0L675 18.8C675 37.7 675 75.3 675 112.8C675 150.3 675 187.7 675 225.2C675 262.7 675 300.3 675 337.8C675 375.3 675 412.7 675 450.2C675 487.7 675 525.3 675 562.8C675 600.3 675 637.7 675 675.2C675 712.7 675 750.3 675 787.8C675 825.3 675 862.7 675 881.3L675 900Z" fill="#943494"></path><path d="M393 900L411.8 881.3C430.7 862.7 468.3 825.3 481 787.8C493.7 750.3 481.3 712.7 472.2 675.2C463 637.7 457 600.3 466 562.8C475 525.3 499 487.7 510.8 450.2C522.7 412.7 522.3 375.3 504.5 337.8C486.7 300.3 451.3 262.7 433.3 225.2C415.3 187.7 414.7 150.3 420.5 112.8C426.3 75.3 438.7 37.7 444.8 18.8L451 0L675 0L675 18.8C675 37.7 675 75.3 675 112.8C675 150.3 675 187.7 675 225.2C675 262.7 675 300.3 675 337.8C675 375.3 675 412.7 675 450.2C675 487.7 675 525.3 675 562.8C675 600.3 675 637.7 675 675.2C675 712.7 675 750.3 675 787.8C675 825.3 675 862.7 675 881.3L675 900Z" fill="#723589"></path><path d="M587 900L581.7 881.3C576.3 862.7 565.7 825.3 548 787.8C530.3 750.3 505.7 712.7 505 675.2C504.3 637.7 527.7 600.3 542.7 562.8C557.7 525.3 564.3 487.7 566.3 450.2C568.3 412.7 565.7 375.3 551.2 337.8C536.7 300.3 510.3 262.7 501.3 225.2C492.3 187.7 500.7 150.3 505 112.8C509.3 75.3 509.7 37.7 509.8 18.8L510 0L675 0L675 18.8C675 37.7 675 75.3 675 112.8C675 150.3 675 187.7 675 225.2C675 262.7 675 300.3 675 337.8C675 375.3 675 412.7 675 450.2C675 487.7 675 525.3 675 562.8C675 600.3 675 637.7 675 675.2C675 712.7 675 750.3 675 787.8C675 825.3 675 862.7 675 881.3L675 900Z" fill="#52327a"></path><path d="M608 900L606.2 881.3C604.3 862.7 600.7 825.3 589.7 787.8C578.7 750.3 560.3 712.7 555.5 675.2C550.7 637.7 559.3 600.3 569 562.8C578.7 525.3 589.3 487.7 597.8 450.2C606.3 412.7 612.7 375.3 603.7 337.8C594.7 300.3 570.3 262.7 557.3 225.2C544.3 187.7 542.7 150.3 547.5 112.8C552.3 75.3 563.7 37.7 569.3 18.8L575 0L675 0L675 18.8C675 37.7 675 75.3 675 112.8C675 150.3 675 187.7 675 225.2C675 262.7 675 300.3 675 337.8C675 375.3 675 412.7 675 450.2C675 487.7 675 525.3 675 562.8C675 600.3 675 637.7 675 675.2C675 712.7 675 750.3 675 787.8C675 825.3 675 862.7 675 881.3L675 900Z" fill="#352d68"></path></svg>